<?xml version="1.0" encoding="UTF-8" standalone="no"?>
<!DOCTYPE svg PUBLIC "-//W3C//DTD SVG 1.1//EN" "http://www.w3.org/Graphics/SVG/1.1/DTD/svg11.dtd">
<svg width="100%" height="100%" viewBox="0 0 300 300" version="1.1" xmlns="http://www.w3.org/2000/svg" xmlns:xlink="http://www.w3.org/1999/xlink" xml:space="preserve" xmlns:serif="http://www.serif.com/" style="fill-rule:evenodd;clip-rule:evenodd;stroke-linejoin:round;stroke-miterlimit:2;">
    <g transform="matrix(1.75641,0,0,1.75641,-113.462,-195.617)">
        <path d="M115.716,171.795C114.234,169.336 113.009,166.705 112.078,163.939L119.438,152.049L111.246,161.125C110.432,157.946 110,154.617 110,151.189C110,136.09 118.384,122.934 130.746,116.126L127.129,124.3L133.687,114.661C136.674,113.324 139.853,112.343 143.171,111.771L137.692,118.627L147.302,111.279C148.192,111.219 149.093,111.189 150,111.189C150.621,111.189 151.238,111.203 151.851,111.231L149.036,116.496L153.751,111.363C155.644,111.539 157.499,111.848 159.306,112.279L157.416,116.008L160.359,112.546C161.318,112.802 162.263,113.094 163.193,113.419L155.559,119.999L162.971,115.752L159.35,122.526L166.802,114.884C168.815,115.818 170.737,116.914 172.551,118.156L172.511,118.304L169.411,122.286L172.083,119.902L171.184,123.252L168.916,126.998L170.664,125.192L169.596,129.171L175.146,120.559L175.4,120.297C175.478,120.361 175.555,120.425 175.632,120.49L175.277,121.752L171.747,127.295L174.729,123.697L174.273,125.32L175.653,122.582L176.201,121.922L173.681,127.675L172.153,130.903L173.738,128.67L173.655,128.906L174.469,127.64L174.84,127.117L176.356,125.813L176,126.818L176.616,125.589L177.987,124.41L177.295,126.295L175.545,129.461L174.806,130.468L175.147,130.181L174.509,131.334L174.804,130.964L172.989,134.15L180.251,125.03C181.117,126.03 181.934,127.073 182.698,128.156L177.958,132.809L183.331,129.079C183.442,129.245 183.551,129.412 183.659,129.58L177.079,139.85L185.049,131.909C186.711,134.922 187.996,138.172 188.84,141.596L185.802,148.617L188.714,143.877L186.297,152.536L189.745,146.648C189.913,148.138 190,149.653 190,151.189C190,154.856 189.506,158.408 188.58,161.783L178.465,169.885L187.797,164.303C185.489,170.95 181.475,176.802 176.278,181.336L177.607,176.997L176.316,179.827L176.765,176.527L175.65,181.287L175.221,182.228C172.946,184.079 170.464,185.685 167.816,187.006L169.662,179.17L165.952,187.877C164.612,188.461 163.233,188.974 161.822,189.41L161.537,185.034L160.721,189.733C158.702,190.294 156.62,190.701 154.487,190.94L157.838,182.091L152.576,189.998L152.966,187.729L151.75,191.151C151.172,191.176 150.587,191.189 150,191.189C149.303,191.189 148.61,191.171 147.922,191.136L150.68,183.864L145.307,190.916C144.542,190.826 143.784,190.715 143.032,190.583L144.563,187.724L142.659,190.515C141.148,190.235 139.666,189.869 138.22,189.423L143.83,182.243L137.572,187.74L139.736,183.676L135.836,188.605C133.309,187.647 130.904,186.439 128.651,185.013L131.861,178.33L127.054,183.949C122.936,181.057 119.387,177.41 116.609,173.208L120.828,167.902L117.74,170.464L119.788,167.396L115.716,171.795ZM172.1,167.549L169.983,173.624L170.095,169.954C169.1,171.019 168.022,172.005 166.871,172.9L163.134,178.68L164.706,174.425C162.499,175.826 160.078,176.921 157.505,177.651L155.045,182.025L156.245,177.975C155.049,178.253 153.824,178.453 152.575,178.57L150.856,181.403L152.089,178.61C151.399,178.662 150.703,178.689 150,178.689C149.25,178.689 148.507,178.659 147.772,178.6L145.856,183.586L146.869,179.169L144.912,182.021L146.313,178.443C144.75,178.234 143.228,177.892 141.759,177.431L138.945,181.676L138.15,183.595L138.574,182.235L136.595,185.222L139.77,178.404L140.077,177.422L137.513,180.738L135.579,184.777L136.414,182.16L134.223,184.994L137.051,179.705L135.477,181.646L137.645,178.593L138.431,177.121L135.604,180.137L134.714,182.048L135.249,180.515L133.197,182.704L134.508,180.379L133.003,181.74L135.861,177.982L136.579,176.71L136.973,175.581L135.856,177.554L136.865,175.428L131.335,181.912L133.544,178.072L132.377,178.833L134.125,177.062L135.55,174.585C135.469,174.536 135.389,174.486 135.309,174.435L132.408,177.524L134.505,174.446L133.031,175.574L134.604,173.973C132.623,172.631 130.826,171.037 129.259,169.239L127.299,171.725L129.067,169.016C128.3,168.117 127.59,167.167 126.943,166.173L123.913,170.363L126.557,165.565C125.831,164.384 125.192,163.144 124.648,161.854L124.4,162.179L123.268,164.38L123.888,162.85L122.67,164.446L124.452,161.376C124.067,160.413 123.735,159.424 123.46,158.411L120.412,163.019L122.513,158.586L121.22,160.035L123.033,156.598C122.683,154.849 122.5,153.04 122.5,151.189C122.5,148.15 122.994,145.225 123.906,142.493L117.833,146.977L125.258,139.18C128.114,133.312 132.997,128.608 138.993,125.984L142.538,121.813L143.776,117.897L143.291,120.926L146.547,117.096L142.723,124.664C144.823,124.088 147.024,123.755 149.293,123.698L152.927,118.933L150.389,122.908L152.338,121.216L150.882,123.703C152.639,123.758 154.355,123.979 156.015,124.35L158.534,121.813L157.003,123.765L158.299,122.868L156.512,124.466C157.214,124.637 157.906,124.834 158.586,125.058L160.177,124.025L161.996,122.419L160.69,123.693L160.975,123.507L160.379,123.996L159.108,125.235C159.996,125.547 160.864,125.904 161.708,126.302L163.48,123.296L162.341,125.848L163.306,125.016L164.558,123.617L164.219,124.229L166.582,122.194L163.182,127.053C164.674,127.87 166.081,128.821 167.389,129.89L169.21,128.043L168.181,129.67L169.835,128.092L167.834,130.262C168.355,130.706 168.86,131.171 169.347,131.653L172.315,129.672L169.738,132.048C170.011,132.329 170.277,132.616 170.538,132.909L174.331,129.538L170.981,133.418C171.515,134.048 172.021,134.702 172.498,135.379L173.727,134.452L172.584,135.502C173.269,136.485 173.891,137.515 174.445,138.587L176.606,136.706L175.462,138.029L176.69,137.317L174.741,139.176C175.166,140.049 175.546,140.948 175.878,141.87L176.701,141.277L178.161,139.74L177.211,140.91L178.505,139.979L176.052,142.366C176.526,143.766 176.891,145.217 177.136,146.707L185.516,140.719L179.498,146.659L185.303,145.375L177.394,148.736L177.392,148.738C177.464,149.545 177.5,150.363 177.5,151.189C177.5,153.461 177.224,155.67 176.703,157.782L183.276,155.403L176.458,158.706C175.541,161.934 174.049,164.922 172.1,167.549Z" style="fill:rgb(95,0,0);"/>
    </g>
    <g transform="matrix(1.75641,0,0,1.75641,-120.802,-226.51)">
        <path d="M71.787,299.58C71.716,298.173 71.679,296.756 71.679,295.331C71.679,294.607 71.689,293.886 71.707,293.167L83.355,278.386L72.195,286.064C72.782,280.82 73.862,275.724 75.388,270.82L85.053,260.909L92.015,256.168L87.564,258.335L93.043,252.717L78.429,262.619C83.877,250.032 92.374,239.065 102.985,230.652L94.01,246.403L101.493,236.556L98.283,243.386L107.51,228.639L109.557,225.945C111.506,224.688 113.511,223.511 115.57,222.418L107.387,236.254L120.091,220.192C126.26,217.386 132.834,215.318 139.698,214.101L137.515,221.277L139.554,217.418L138.815,223.649L142.444,213.661C146.277,213.114 150.195,212.831 154.179,212.831C156.062,212.831 157.929,212.894 159.78,213.019L160.563,224.591L162.416,213.238C163.203,213.316 163.986,213.405 164.765,213.505L160.816,224.418L168.324,214.042C168.926,214.146 169.525,214.256 170.123,214.373L161.578,224.668L175.08,215.506C175.843,215.706 176.601,215.916 177.356,216.137L162.675,224.734L180.574,217.151C181.432,217.441 182.285,217.745 183.132,218.063L173.758,228.448L184.691,220.659L179.164,227.477L187.628,219.904C187.969,220.055 188.308,220.209 188.646,220.365L185.271,227.93L191.621,221.809C193.949,222.998 196.215,224.296 198.41,225.694L190.724,230.135L197.476,227.926L190.362,235.116L202.918,228.779C204.355,229.833 205.756,230.933 207.12,232.076L198.168,241.527L208.954,233.659C211.194,235.651 213.325,237.762 215.336,239.982L205.572,248.28L217.683,242.689C218.559,243.744 219.408,244.821 220.232,245.92L211.347,255.547L217.738,250.44L212.432,259.259L221.403,247.521C222.751,249.412 224.022,251.363 225.208,253.366L222.793,265.293L227.824,258.133C228.532,259.53 229.201,260.95 229.83,262.391L220.606,275.042L229.798,267.314L223.837,278.319L232.047,268.028C232.721,269.95 233.327,271.904 233.86,273.888L227.25,288.272L235.034,278.869C235.532,281.328 235.922,283.826 236.196,286.358L231.117,294.512L235.108,291.156L232.196,299.58L225.152,299.58L228.779,294.519L221.769,299.58L220,299.58C220.119,297.963 220.179,296.331 220.179,294.684C220.179,293.058 220.12,291.445 220.004,289.848L227.668,282.027L220.558,284.516L223.748,278.67L219.107,282.783C218.589,279.941 217.888,277.161 217.017,274.457L219.497,272.536L216.83,273.887C216.198,271.984 215.481,270.119 214.685,268.297L220.736,263.339L215.712,265.788L218.938,262.166L213.707,266.165C211.958,262.525 209.884,259.068 207.524,255.834L211.314,252.178L206.786,254.843L206.725,254.762L210.684,249.572L205.22,252.859C203.189,250.384 200.98,248.057 198.614,245.901L204.434,239.03L200.106,243.015L201.457,240.801L197.155,244.61C196.021,243.635 194.852,242.698 193.652,241.8L199.041,234.894L191.957,240.573C189.069,238.552 186.011,236.756 182.81,235.21L186.452,228.667L181.174,234.33L183.719,228.767L179.156,233.582C176.192,232.368 173.121,231.363 169.96,230.586L174.642,223.043L168.742,227.562L170.034,223.716L166.678,229.143L165.916,229.727C162.103,229.042 158.183,228.684 154.179,228.684C152.478,228.684 150.792,228.749 149.126,228.875L152.572,221.52L146.56,229.12C145.017,229.298 143.489,229.529 141.979,229.812L144.557,224.084L138.924,230.46C136.719,230.982 134.558,231.615 132.447,232.352L134.535,225.667L132.781,228.784L134.54,221.101L127.871,234.145C126.207,234.87 124.578,235.661 122.989,236.516L125.297,230.702L119.427,238.578C110.623,244.046 103.197,251.528 97.798,260.379L86.218,270.412L95.901,263.699C92.647,269.803 90.324,276.474 89.12,283.526L85.05,288.139L77.084,290.477L83.803,289.552L77.107,297.141L86.954,289.119L88.428,288.916C88.263,290.817 88.179,292.741 88.179,294.684C88.179,295.202 88.185,295.718 88.197,296.232L84.876,299.58L71.787,299.58ZM233.96,299.58L236.679,294.991C236.679,295.106 236.679,295.219 236.679,295.331C236.679,296.756 236.643,298.173 236.572,299.58L233.96,299.58Z" style="fill:rgb(95,0,0);"/>
    </g>
</svg>
