<?xml version="1.0" encoding="UTF-8" standalone="no"?>
<!DOCTYPE svg PUBLIC "-//W3C//DTD SVG 1.1//EN" "http://www.w3.org/Graphics/SVG/1.1/DTD/svg11.dtd">
<svg width="100%" height="100%" viewBox="0 0 100 100" version="1.1" xmlns="http://www.w3.org/2000/svg" xmlns:xlink="http://www.w3.org/1999/xlink" xml:space="preserve" xmlns:serif="http://www.serif.com/" style="fill-rule:evenodd;clip-rule:evenodd;stroke-linejoin:round;stroke-miterlimit:2;">
    <g transform="matrix(6.54079,0,0,2.5651,-183.899,-75.6174)">
        <path d="M43.382,41.41C43.382,37.236 42.053,33.848 40.417,33.848L31.059,33.848C29.422,33.848 28.094,37.236 28.094,41.41L28.094,56.534C28.094,60.707 29.422,64.095 31.059,64.095L40.417,64.095C42.053,64.095 43.382,60.707 43.382,56.534L43.382,41.41Z" style="fill:rgb(69,46,40);"/>
    </g>
    <g transform="matrix(-1.89622,0,0,1.89622,148.971,-40.7003)">
        <path d="M29.103,44.452L29.104,44.451L28.743,44.8L31.678,40.559L40.686,40.559L40.769,41.975L41.258,40.559L51.89,40.559L49.583,43.113L52.891,40.559L62.399,40.559L61.389,43.55L63.317,40.854L69.015,43.703L68.406,44.539L69.441,43.916L77.273,47.832L72.534,50.201L69.653,49.728L71.493,50.722L62.727,55.105L58.159,55.105L58.143,53.284L57.199,55.105L52.46,55.105L53.101,53.044L51.757,55.105L45.489,55.105L45.249,50.769L45.008,55.105L38.311,55.105L41.309,48.978L33.727,55.105L31.678,55.105L28.127,49.975L30.749,49.13L27.536,49.121L27.267,48.733L28.433,46.015L29.525,44.023L29.103,44.452Z" style="fill:rgb(172,33,28);"/>
    </g>
</svg>
